# xmcd CD database file
#
# Track frame offsets:
#	150
#	98617
#	150331
#	169188
#	197900
#	224469
#	250403
#	282143
#	312055
#
# Disc length: 4413 seconds
#
# Revision: 0
# Processed by: cddbd v1.5.1PL0 Copyright (c) Steve Scherf et al.
# Submitted via: CDex 1.51
#
DISCID=75113b09
DTITLE=Török Ádám és Mini - 50/30 plusz
DYEAR=1900
DGENRE=Jazz
TTITLE0=Multimédia Track
TTITLE1=Gõzhajó
TTITLE2=Fekete gép
TTITLE3=Koldus király
TTITLE4=Bem rockpart 6.
TTITLE5=Vissza a városba
TTITLE6=A jó gitár
TTITLE7=50/30
TTITLE8=Ha(ll)j csodát
EXTD=
EXTT0=
EXTT1=
EXTT2=
EXTT3=
EXTT4=
EXTT5=
EXTT6=
EXTT7=
EXTT8=
PLAYORDER=
